FFmpeg version SVN-r25716, Copyright (c) 2000-2010 the FFmpeg developers  built on Nov 10 2010 12:23:18 with gcc 4.1.2 20080704 (Red Hat 4.1.2-48)  configuration: --enable-libmp3lame --enable-shared --disable-mmx --arch=x86_64  libavutil     50.33. 0 / 50.33. 0  libavcore      0.12. 1 /  0.12. 1  libavcodec    52.94. 4 / 52.94. 4  libavformat   52.84. 0 / 52.84. 0  libavdevice   52. 2. 2 / 52. 2. 2  libavfilter    1.59. 0 /  1.59. 0  libswscale     0.12. 0 /  0.12. 0Input #0, avi, from '/RAID10/data/converted_video_files/47538.avi':  Duration: 00:00:02.66, start: 0.000000, bitrate: 283072 kb/s    Stream #0.0: Video: msvideo1, rgb555le, 1024x1024, 30 tbr, 30 tbn, 30 tbc[buffer @ 0x125f1520] w:1024 h:1024 pixfmt:rgb555le[ffsink @ 0x1261ed80] auto-inserting filter 'auto-inserted scaler 0' between the filter 'src' and the filter 'out'[scale @ 0x1261f0a0] w:1024 h:1024 fmt:rgb555le -> w:1024 h:1024 fmt:yuv420p flags:0x4Output #0, flv, to '/RAID10/data/converted_video_files/47538.flv':  Metadata:    encoder         : Lavf52.84.0    Stream #0.0: Video: flv, yuv420p, 1024x1024, q=2-31, 600 kb/s, 1k tbn, 24 tbcStream mapping:  Stream #0.0 -> #0.0Press [q] to stop encodingframe=    6 fps=  0 q=7.0 size=    1044kB time=0.25 bitrate=34207.2kbits/s dup=0 drop=1    frame=    8 fps=  7 q=6.3 size=    1114kB time=0.33 bitrate=27395.1kbits/s dup=0 drop=2    frame=   14 fps=  8 q=17.2 size=    1255kB time=0.58 bitrate=17634.2kbits/s dup=0 drop=3    frame=   21 fps=  9 q=31.0 size=    1263kB time=0.88 bitrate=11826.2kbits/s dup=0 drop=5    frame=   31 fps= 11 q=31.0 size=    1297kB time=1.29 bitrate=8223.6kbits/s dup=0 drop=7    frame=   40 fps= 12 q=31.0 size=    1330kB time=1.67 bitrate=6535.0kbits/s dup=0 drop=10    frame=   47 fps= 12 q=31.0 size=    1361kB time=1.96 bitrate=5692.4kbits/s dup=0 drop=12    frame=   55 fps= 13 q=31.0 size=    1366kB time=2.29 bitrate=4884.0kbits/s dup=0 drop=13    frame=   64 fps= 13 q=31.0 size=    1399kB time=2.67 bitrate=4298.3kbits/s dup=0 drop=16    frame=   64 fps= 13 q=31.0 Lsize=    1399kB time=2.67 bitrate=4298.3kbits/s dup=0 drop=16    video:1398kB audio:0kB global headers:0kB muxing overhead 0.086191%